<svg xmlns="http://www.w3.org/2000/svg" viewBox="0 0 243.976 90.8084" color-interpolation-filters="sRGB" fill="none" overflow="visible" fill-rule="evenodd" stroke-linecap="square" font-size="12" stroke-miterlimit="3" xmlns:xlink="http://www.w3.org/1999/xlink">
 <g transform="translate(42.15-.72)">
  <g>
   <rect y="60" width="53.858" height="30.803" fill="#fff" stroke="#000" stroke-linejoin="round" stroke-linecap="round" stroke-width=".72"/>
   <text x="1" y="68.2" fill="#000" font-family="Calibri" font-size="8">country<tspan x="1" dy="9.6">city</tspan><tspan x="1" dy="9.6">street</tspan>
   </text>
  </g>
  <g transform="translate(0-30.803)">
   <path d="m0 90.81h53.86v-14.46h-53.86v14.46" fill="#fff" stroke="#000" stroke-linejoin="round" stroke-linecap="round" stroke-width=".72" id="0"/>
   <text x="10.42" y="85.98" fill="#000" font-family="Calibri" font-weight="bold" font-size="8">addresses</text>
  </g>
 </g>
 <g transform="translate(42.15-54.58)">
  <g>
   <rect y="78.19" width="53.858" height="12.614" fill="#fff" stroke="#000" stroke-linejoin="round" stroke-linecap="round" stroke-width=".72"/>
   <text x="1" y="86.39" fill="#000" font-family="Calibri" font-size="8">name</text>
  </g>
  <g transform="translate(0-12.614)">
   <use xlink:href="#0"/>
   <text x="11.63" y="85.98" fill="#000" font-family="Calibri" font-weight="bold" font-size="8">residents</text>
  </g>
 </g>
 <g transform="translate(49.24-68.11)">
  <g fill="#000" font-family="Calibri" font-size="8">
   <text x="4.91" y="84.41" transform="translate(-27.955-5.091)">*</text>
   <text x="4.91" y="84.41" transform="translate(-49.24 39.672)">address</text>
   <text x="4.91" y="84.41" transform="translate(-28.03 67.46)">1</text>
  </g>
  <path d="m-7.09 90.81h-10.63v44.76h10.63" stroke="#000" stroke-linejoin="round" stroke-linecap="round" stroke-width=".48"/>
 </g>
 <g transform="translate(149.03-50.28)">
  <g>
   <rect y="69.6" width="58.942" height="21.2" fill="#fff" stroke="#000" stroke-linejoin="round" stroke-linecap="round" stroke-width=".72"/>
   <text x="1" y="77.8" fill="#000" font-family="Calibri" font-size="8">name<tspan x="1" dy="9.6">tolerance level</tspan>
   </text>
  </g>
  <g transform="translate(0-21.2)">
   <path d="m0 90.81h58.94v-14.46h-58.94v14.46" fill="#fff" stroke="#000" stroke-linejoin="round" stroke-linecap="round" stroke-width=".72"/>
   <text x="1.91" y="85.98" fill="#000" font-family="Calibri" font-weight="bold" font-size="8">residents groups</text>
  </g>
 </g>
 <g transform="translate(96.01-61.03)">
  <g fill="#000" font-family="Calibri" font-size="8">
   <text x="4.91" y="84.41" transform="translate(6.682 15.608)">*</text>
   <text x="4.91" y="84.41" transform="translate(17.353-12.178)">group</text>
   <text x="4.91" y="84.41" transform="translate(32.478 15.608)">1</text>
  </g>
  <path d="m0 83.72h53.03" stroke="#000" stroke-linejoin="round" stroke-linecap="round" stroke-width=".48"/>
 </g>
</svg>
