<?xml version="1.0" encoding="UTF-8" standalone="no"?>
<!DOCTYPE svg PUBLIC "-//W3C//DTD SVG 1.0//EN" "http://www.w3.org/TR/2001/REC-SVG-20010904/DTD/svg10.dtd">
<!-- Generated by Microsoft Visio 11.0, SVG Export, v1.0 FourConsecutiveMachines.svg Page-1 -->
<svg xmlns="http://www.w3.org/2000/svg" xmlns:xlink="http://www.w3.org/1999/xlink" xmlns:ev="http://www.w3.org/2001/xml-events"
		xmlns:v="http://schemas.microsoft.com/visio/2003/SVGExtensions/" width="4.51482in" height="0.691921in"
		viewBox="0 0 325.067 49.8183" xml:space="preserve" color-interpolation-filters="sRGB" class="st9">
	<v:documentProperties v:langID="1033" v:metric="true" v:viewMarkup="false"/>

	<style type="text/css">
	<![CDATA[
		.st1 {visibility:visible}
		.st2 {fill:#cdcdcd;fill-opacity:0.5;stroke:#cdcdcd;stroke-linecap:round;stroke-linejoin:round;stroke-opacity:0.5;stroke-width:0.25}
		.st3 {fill:url(#grad30-7);stroke:#404040;stroke-linecap:round;stroke-linejoin:round;stroke-width:0.25}
		.st4 {fill:#000000;font-family:Calibri;font-size:0.666664em}
		.st5 {marker-end:url(#mrkr5-34);stroke:#404040;stroke-linecap:round;stroke-linejoin:round;stroke-width:1}
		.st6 {fill:#404040;fill-opacity:1;stroke:#404040;stroke-opacity:1;stroke-width:0.28409090909091}
		.st7 {fill:none;stroke:none;stroke-linecap:round;stroke-linejoin:round;stroke-width:0.25}
		.st8 {font-size:1em}
		.st9 {fill:none;fill-rule:evenodd;font-size:12px;overflow:visible;stroke-linecap:square;stroke-miterlimit:3}
	]]>
	</style>

	<defs id="Patterns_And_Gradients">
		<linearGradient id="grad30-7" v:fillPattern="30" v:foreground="#f0f0f0" v:background="#ffffff" x1="0" y1="1" x2="0" y2="0">
			<stop offset="0" style="stop-color:#f0f0f0;stop-opacity:1"/>
			<stop offset="1" style="stop-color:#ffffff;stop-opacity:1"/>
		</linearGradient>
	</defs>
	<defs id="Markers">
		<g id="lend5">
			<path d="M 2 1 L 0 0 L 1.98117 -0.993387 C 1.67173 -0.364515 1.67301 0.372641 1.98465 1.00043 " style="stroke:none"/>
		</g>
		<marker id="mrkr5-34" class="st6" v:arrowType="5" v:arrowSize="2" v:setback="6.16" refX="-6.16" orient="auto"
				markerUnits="strokeWidth" overflow="visible">
			<use xlink:href="#lend5" transform="scale(-3.52,-3.52) "/>
		</marker>
	</defs>
	<g v:mID="0" v:index="1" v:groupContext="foregroundPage">
		<title>Page-1</title>
		<v:pageProperties v:drawingScale="0.0393701" v:pageScale="0.0393701" v:drawingUnits="24" v:shadowOffsetX="8.50394"
				v:shadowOffsetY="-8.50394"/>
		<v:layer v:name="Connector" v:index="0"/>
		<g id="group14-1" transform="translate(230.565,-18.1038)" v:mID="14" v:groupContext="group">
			<v:userDefs>
				<v:ud v:nameU="msvThemeColors" v:val="VT0(36):26"/>
				<v:ud v:nameU="msvThemeEffects" v:val="VT0(16):26"/>
			</v:userDefs>
			<title>Sheet.14</title>
			<g id="shape15-2" v:mID="15" v:groupContext="shape">
				<title>Rectangle</title>
				<v:userDefs>
					<v:ud v:nameU="visVersion" v:val="VT0(14):26"/>
					<v:ud v:nameU="msvThemeColors" v:val="VT0(36):26"/>
					<v:ud v:nameU="msvThemeEffects" v:val="VT0(16):26"/>
				</v:userDefs>
				<g id="shadow15-3" v:groupContext="shadow" v:shadowOffsetX="1.44" v:shadowOffsetY="-1.44" v:shadowType="1"
						transform="matrix(1,0,0,1,1.44,1.44)" class="st1">
					<rect x="0" y="18.6372" width="42.5197" height="31.1811" class="st2"/>
				</g>
				<rect x="0" y="18.6372" width="42.5197" height="31.1811" class="st3"/>
			</g>
			<g id="shape16-8" v:mID="16" v:groupContext="shape" transform="translate(0,-0.283465)">
				<title>Rounded rectangle</title>
				<desc>M4</desc>
				<v:userDefs>
					<v:ud v:nameU="visVersion" v:val="VT0(14):26"/>
					<v:ud v:nameU="msvThemeColors" v:val="VT0(36):26"/>
					<v:ud v:nameU="msvThemeEffects" v:val="VT0(16):26"/>
				</v:userDefs>
				<v:textBlock v:margins="rect(4,4,4,4)" v:tabSpace="42.5197"/>
				<v:textRect cx="21.2598" cy="34.2278" width="42.52" height="31.1811"/>
				<g id="shadow16-9" v:groupContext="shadow" v:shadowOffsetX="1.44" v:shadowOffsetY="-1.44" v:shadowType="1"
						transform="matrix(1,0,0,1,1.44,1.44)" class="st1">
					<path d="M28.35 49.82 A14.1733 14.1733 -180 0 0 42.52 35.65 L42.52 32.81 A14.1733 14.1733 -180 0 0 28.35 18.64
								 L14.17 18.64 A14.1733 14.1733 -180 0 0 -0 32.81 L0 35.65 A14.1733 14.1733 -180 0 0 14.17 49.82 L28.35
								 49.82 Z" class="st2"/>
				</g>
				<path d="M28.35 49.82 A14.1733 14.1733 -180 0 0 42.52 35.65 L42.52 32.81 A14.1733 14.1733 -180 0 0 28.35 18.64 L14.17
							 18.64 A14.1733 14.1733 -180 0 0 -0 32.81 L0 35.65 A14.1733 14.1733 -180 0 0 14.17 49.82 L28.35 49.82
							 Z" class="st3"/>
				<text x="15.81" y="36.63" class="st4" v:langID="1031"><v:paragraph v:horizAlign="1"/><v:tabList/>M4</text>			</g>
		</g>
		<g id="group3-14" transform="translate(49.8563,-17.8203)" v:mID="3" v:groupContext="group">
			<v:userDefs>
				<v:ud v:nameU="msvThemeColors" v:val="VT0(36):26"/>
				<v:ud v:nameU="msvThemeEffects" v:val="VT0(16):26"/>
			</v:userDefs>
			<title>Sheet.3</title>
			<desc>M1</desc>
			<g id="shape1-15" v:mID="1" v:groupContext="shape">
				<title>Rectangle</title>
				<v:userDefs>
					<v:ud v:nameU="visVersion" v:val="VT0(14):26"/>
					<v:ud v:nameU="msvThemeColors" v:val="VT0(36):26"/>
					<v:ud v:nameU="msvThemeEffects" v:val="VT0(16):26"/>
				</v:userDefs>
				<g id="shadow1-16" v:groupContext="shadow" v:shadowOffsetX="1.44" v:shadowOffsetY="-1.44" v:shadowType="1"
						transform="matrix(1,0,0,1,1.44,1.44)" class="st1">
					<rect x="0" y="18.6372" width="42.5197" height="31.1811" class="st2"/>
				</g>
				<rect x="0" y="18.6372" width="42.5197" height="31.1811" class="st3"/>
			</g>
			<g id="shape2-20" v:mID="2" v:groupContext="shape" transform="translate(0,-0.283465)">
				<title>Rounded rectangle</title>
				<v:userDefs>
					<v:ud v:nameU="visVersion" v:val="VT0(14):26"/>
					<v:ud v:nameU="msvThemeColors" v:val="VT0(36):26"/>
					<v:ud v:nameU="msvThemeEffects" v:val="VT0(16):26"/>
				</v:userDefs>
				<g id="shadow2-21" v:groupContext="shadow" v:shadowOffsetX="1.44" v:shadowOffsetY="-1.44" v:shadowType="1"
						transform="matrix(1,0,0,1,1.44,1.44)" class="st1">
					<path d="M28.35 49.82 A14.1733 14.1733 -180 0 0 42.52 35.65 L42.52 32.81 A14.1733 14.1733 -180 0 0 28.35 18.64
								 L14.17 18.64 A14.1733 14.1733 -180 0 0 -0 32.81 L0 35.65 A14.1733 14.1733 -180 0 0 14.17 49.82 L28.35
								 49.82 Z" class="st2"/>
				</g>
				<path d="M28.35 49.82 A14.1733 14.1733 -180 0 0 42.52 35.65 L42.52 32.81 A14.1733 14.1733 -180 0 0 28.35 18.64 L14.17
							 18.64 A14.1733 14.1733 -180 0 0 -0 32.81 L0 35.65 A14.1733 14.1733 -180 0 0 14.17 49.82 L28.35 49.82
							 Z" class="st3"/>
			</g>
			<g id="shape3-25" v:mID="3" v:groupContext="groupContent">
				<v:textBlock v:margins="rect(4,4,4,4)" v:tabSpace="42.5197"/>
				<v:textRect cx="21.2598" cy="34.0861" width="42.52" height="31.4646"/>
				<g id="shadow3-26" v:groupContext="shadow" v:shadowOffsetX="1.44" v:shadowOffsetY="-1.44" v:shadowType="1"
						transform="matrix(1,0,0,1,1.44,1.44)" class="st1"/>
				<text x="15.81" y="36.49" class="st4" v:langID="1031"><v:paragraph v:horizAlign="1"/><v:tabList/>M1</text>			</g>
		</g>
		<g id="shape5-28" v:mID="5" v:groupContext="shape" v:layerMember="0" transform="translate(31.4311,-26.6077)">
			<title>Dynamic connector</title>
			<v:userDefs>
				<v:ud v:nameU="msvThemeColors" v:val="VT0(36):26"/>
				<v:ud v:nameU="msvThemeEffects" v:val="VT0(16):26"/>
			</v:userDefs>
			<path d="M0 42.73 L12.27 42.73" class="st5"/>
		</g>
		<g id="group6-35" transform="translate(109.667,-18.1038)" v:mID="6" v:groupContext="group">
			<v:userDefs>
				<v:ud v:nameU="msvThemeColors" v:val="VT0(36):26"/>
				<v:ud v:nameU="msvThemeEffects" v:val="VT0(16):26"/>
			</v:userDefs>
			<title>Sheet.6</title>
			<g id="shape7-36" v:mID="7" v:groupContext="shape">
				<title>Rectangle</title>
				<v:userDefs>
					<v:ud v:nameU="visVersion" v:val="VT0(14):26"/>
					<v:ud v:nameU="msvThemeColors" v:val="VT0(36):26"/>
					<v:ud v:nameU="msvThemeEffects" v:val="VT0(16):26"/>
				</v:userDefs>
				<g id="shadow7-37" v:groupContext="shadow" v:shadowOffsetX="1.44" v:shadowOffsetY="-1.44" v:shadowType="1"
						transform="matrix(1,0,0,1,1.44,1.44)" class="st1">
					<rect x="0" y="18.6372" width="42.5197" height="31.1811" class="st2"/>
				</g>
				<rect x="0" y="18.6372" width="42.5197" height="31.1811" class="st3"/>
			</g>
			<g id="shape8-41" v:mID="8" v:groupContext="shape" transform="translate(0,-0.283465)">
				<title>Rounded rectangle</title>
				<desc>M2</desc>
				<v:userDefs>
					<v:ud v:nameU="visVersion" v:val="VT0(14):26"/>
					<v:ud v:nameU="msvThemeColors" v:val="VT0(36):26"/>
					<v:ud v:nameU="msvThemeEffects" v:val="VT0(16):26"/>
				</v:userDefs>
				<v:textBlock v:margins="rect(4,4,4,4)" v:tabSpace="42.5197"/>
				<v:textRect cx="21.2598" cy="34.2278" width="42.52" height="31.1811"/>
				<g id="shadow8-42" v:groupContext="shadow" v:shadowOffsetX="1.44" v:shadowOffsetY="-1.44" v:shadowType="1"
						transform="matrix(1,0,0,1,1.44,1.44)" class="st1">
					<path d="M28.35 49.82 A14.1733 14.1733 -180 0 0 42.52 35.65 L42.52 32.81 A14.1733 14.1733 -180 0 0 28.35 18.64
								 L14.17 18.64 A14.1733 14.1733 -180 0 0 -0 32.81 L0 35.65 A14.1733 14.1733 -180 0 0 14.17 49.82 L28.35
								 49.82 Z" class="st2"/>
				</g>
				<path d="M28.35 49.82 A14.1733 14.1733 -180 0 0 42.52 35.65 L42.52 32.81 A14.1733 14.1733 -180 0 0 28.35 18.64 L14.17
							 18.64 A14.1733 14.1733 -180 0 0 -0 32.81 L0 35.65 A14.1733 14.1733 -180 0 0 14.17 49.82 L28.35 49.82
							 Z" class="st3"/>
				<text x="15.81" y="36.63" class="st4" v:langID="1031"><v:paragraph v:horizAlign="1"/><v:tabList/>M2</text>			</g>
		</g>
		<g id="shape9-47" v:mID="9" v:groupContext="shape" v:layerMember="0" transform="translate(92.376,-26.6077)">
			<title>Dynamic connector.9</title>
			<v:userDefs>
				<v:ud v:nameU="msvThemeColors" v:val="VT0(36):26"/>
				<v:ud v:nameU="msvThemeEffects" v:val="VT0(16):26"/>
			</v:userDefs>
			<path d="M0 42.73 L11.13 42.73" class="st5"/>
		</g>
		<g id="group10-53" transform="translate(170.47,-18.1038)" v:mID="10" v:groupContext="group">
			<v:userDefs>
				<v:ud v:nameU="msvThemeColors" v:val="VT0(36):26"/>
				<v:ud v:nameU="msvThemeEffects" v:val="VT0(16):26"/>
			</v:userDefs>
			<title>Sheet.10</title>
			<g id="shape11-54" v:mID="11" v:groupContext="shape">
				<title>Rectangle</title>
				<v:userDefs>
					<v:ud v:nameU="visVersion" v:val="VT0(14):26"/>
					<v:ud v:nameU="msvThemeColors" v:val="VT0(36):26"/>
					<v:ud v:nameU="msvThemeEffects" v:val="VT0(16):26"/>
				</v:userDefs>
				<g id="shadow11-55" v:groupContext="shadow" v:shadowOffsetX="1.44" v:shadowOffsetY="-1.44" v:shadowType="1"
						transform="matrix(1,0,0,1,1.44,1.44)" class="st1">
					<rect x="0" y="18.6372" width="42.5197" height="31.1811" class="st2"/>
				</g>
				<rect x="0" y="18.6372" width="42.5197" height="31.1811" class="st3"/>
			</g>
			<g id="shape12-59" v:mID="12" v:groupContext="shape" transform="translate(0,-0.283465)">
				<title>Rounded rectangle</title>
				<desc>M3</desc>
				<v:userDefs>
					<v:ud v:nameU="visVersion" v:val="VT0(14):26"/>
					<v:ud v:nameU="msvThemeColors" v:val="VT0(36):26"/>
					<v:ud v:nameU="msvThemeEffects" v:val="VT0(16):26"/>
				</v:userDefs>
				<v:textBlock v:margins="rect(4,4,4,4)" v:tabSpace="42.5197"/>
				<v:textRect cx="21.2598" cy="34.2278" width="42.52" height="31.1811"/>
				<g id="shadow12-60" v:groupContext="shadow" v:shadowOffsetX="1.44" v:shadowOffsetY="-1.44" v:shadowType="1"
						transform="matrix(1,0,0,1,1.44,1.44)" class="st1">
					<path d="M28.35 49.82 A14.1733 14.1733 -180 0 0 42.52 35.65 L42.52 32.81 A14.1733 14.1733 -180 0 0 28.35 18.64
								 L14.17 18.64 A14.1733 14.1733 -180 0 0 -0 32.81 L0 35.65 A14.1733 14.1733 -180 0 0 14.17 49.82 L28.35
								 49.82 Z" class="st2"/>
				</g>
				<path d="M28.35 49.82 A14.1733 14.1733 -180 0 0 42.52 35.65 L42.52 32.81 A14.1733 14.1733 -180 0 0 28.35 18.64 L14.17
							 18.64 A14.1733 14.1733 -180 0 0 -0 32.81 L0 35.65 A14.1733 14.1733 -180 0 0 14.17 49.82 L28.35 49.82
							 Z" class="st3"/>
				<text x="15.81" y="36.63" class="st4" v:langID="1031"><v:paragraph v:horizAlign="1"/><v:tabList/>M3</text>			</g>
		</g>
		<g id="shape13-65" v:mID="13" v:groupContext="shape" v:layerMember="0" transform="translate(152.187,-26.6077)">
			<title>Dynamic connector.13</title>
			<v:userDefs>
				<v:ud v:nameU="msvThemeColors" v:val="VT0(36):26"/>
				<v:ud v:nameU="msvThemeEffects" v:val="VT0(16):26"/>
			</v:userDefs>
			<path d="M0 42.73 L12.12 42.73" class="st5"/>
		</g>
		<g id="shape17-71" v:mID="17" v:groupContext="shape" v:layerMember="0" transform="translate(212.99,-26.6077)">
			<title>Dynamic connector.17</title>
			<v:userDefs>
				<v:ud v:nameU="msvThemeColors" v:val="VT0(36):26"/>
				<v:ud v:nameU="msvThemeEffects" v:val="VT0(16):26"/>
			</v:userDefs>
			<path d="M0 42.73 L11.41 42.73" class="st5"/>
		</g>
		<g id="group21-77" transform="translate(11.3051,-23.2061)" v:mID="21" v:groupContext="group">
			<v:userDefs>
				<v:ud v:nameU="msvThemeColors" v:val="VT0(36):26"/>
				<v:ud v:nameU="msvThemeEffects" v:val="VT0(16):26"/>
			</v:userDefs>
			<title>Sheet.21</title>
			<g id="shape20-78" v:mID="20" v:groupContext="shape">
				<title>Square</title>
				<v:userDefs>
					<v:ud v:nameU="visVersion" v:val="VT0(14):26"/>
					<v:ud v:nameU="msvThemeColors" v:val="VT0(36):26"/>
					<v:ud v:nameU="msvThemeEffects" v:val="VT0(16):26"/>
				</v:userDefs>
				<g id="shadow20-79" v:groupContext="shadow" v:shadowOffsetX="1.44" v:shadowOffsetY="-1.44" v:shadowType="1"
						transform="matrix(1,0,0,1,1.44,1.44)" class="st1">
					<rect x="0" y="29.4089" width="20.4094" height="20.4094" class="st2"/>
				</g>
				<rect x="0" y="29.4089" width="20.4094" height="20.4094" class="st3"/>
			</g>
			<g id="shape4-83" v:mID="4" v:groupContext="shape" transform="translate(0.283465,-0.566929)">
				<title>Circle</title>
				<v:userDefs>
					<v:ud v:nameU="visVersion" v:val="VT0(14):26"/>
					<v:ud v:nameU="msvThemeColors" v:val="VT0(36):26"/>
					<v:ud v:nameU="msvThemeEffects" v:val="VT0(16):26"/>
				</v:userDefs>
				<g id="shadow4-84" v:groupContext="shadow" v:shadowOffsetX="1.44" v:shadowOffsetY="-1.44" v:shadowType="1"
						transform="matrix(1,0,0,1,1.44,1.44)" class="st1">
					<path d="M0 39.9 A9.92126 9.92126 0 0 1 19.84 39.9 A9.92126 9.92126 0 1 1 0 39.9 Z" class="st2"/>
				</g>
				<path d="M0 39.9 A9.92126 9.92126 0 0 1 19.84 39.9 A9.92126 9.92126 0 1 1 0 39.9 Z" class="st3"/>
			</g>
		</g>
		<g id="group22-88" transform="translate(290.659,-23.6313)" v:mID="22" v:groupContext="group">
			<v:userDefs>
				<v:ud v:nameU="msvThemeColors" v:val="VT0(36):26"/>
				<v:ud v:nameU="msvThemeEffects" v:val="VT0(16):26"/>
			</v:userDefs>
			<title>Sheet.22</title>
			<g id="shape23-89" v:mID="23" v:groupContext="shape">
				<title>Square</title>
				<v:userDefs>
					<v:ud v:nameU="visVersion" v:val="VT0(14):26"/>
					<v:ud v:nameU="msvThemeColors" v:val="VT0(36):26"/>
					<v:ud v:nameU="msvThemeEffects" v:val="VT0(16):26"/>
				</v:userDefs>
				<g id="shadow23-90" v:groupContext="shadow" v:shadowOffsetX="1.44" v:shadowOffsetY="-1.44" v:shadowType="1"
						transform="matrix(1,0,0,1,1.44,1.44)" class="st1">
					<rect x="0" y="29.4089" width="20.4094" height="20.4094" class="st2"/>
				</g>
				<rect x="0" y="29.4089" width="20.4094" height="20.4094" class="st3"/>
			</g>
			<g id="shape24-94" v:mID="24" v:groupContext="shape" transform="translate(0.283465,-0.566929)">
				<title>Circle</title>
				<v:userDefs>
					<v:ud v:nameU="visVersion" v:val="VT0(14):26"/>
					<v:ud v:nameU="msvThemeColors" v:val="VT0(36):26"/>
					<v:ud v:nameU="msvThemeEffects" v:val="VT0(16):26"/>
				</v:userDefs>
				<g id="shadow24-95" v:groupContext="shadow" v:shadowOffsetX="1.44" v:shadowOffsetY="-1.44" v:shadowType="1"
						transform="matrix(1,0,0,1,1.44,1.44)" class="st1">
					<path d="M0 39.9 A9.92126 9.92126 0 0 1 19.84 39.9 A9.92126 9.92126 0 1 1 0 39.9 Z" class="st2"/>
				</g>
				<path d="M0 39.9 A9.92126 9.92126 0 0 1 19.84 39.9 A9.92126 9.92126 0 1 1 0 39.9 Z" class="st3"/>
			</g>
		</g>
		<g id="shape18-99" v:mID="18" v:groupContext="shape" v:layerMember="0" transform="translate(273.085,-26.962)">
			<title>Dynamic connector.18</title>
			<v:userDefs>
				<v:ud v:nameU="msvThemeColors" v:val="VT0(36):26"/>
				<v:ud v:nameU="msvThemeEffects" v:val="VT0(16):26"/>
			</v:userDefs>
			<path d="M0 42.8 L10.63 42.8 L10.63 42.66 L11.7 42.66" class="st5"/>
		</g>
		<g id="shape25-105" v:mID="25" v:groupContext="shape" transform="translate(0.25,-0.387242)">
			<title>Sheet.25</title>
			<desc>order arrivals</desc>
			<v:userDefs>
				<v:ud v:nameU="msvThemeColors" v:val="VT0(36):26"/>
				<v:ud v:nameU="msvThemeEffects" v:val="VT0(16):26"/>
			</v:userDefs>
			<v:textBlock v:margins="rect(4,4,4,4)" v:tabSpace="42.5197"/>
			<v:textRect cx="21.2598" cy="40.6057" width="42.52" height="18.4252"/>
			<rect x="0" y="31.3931" width="42.5197" height="18.4252" class="st7"/>
			<text x="12.27" y="38.21" class="st4" v:langID="1031"><v:paragraph v:horizAlign="1"/><v:tabList/>order <tspan x="9.43"
						dy="1.2em" class="st8">arrivals</tspan></text>		</g>
		<g id="shape26-109" v:mID="26" v:groupContext="shape" transform="translate(279.604,-2.51323)">
			<title>Sheet.26</title>
			<desc>item departures</desc>
			<v:userDefs>
				<v:ud v:nameU="msvThemeColors" v:val="VT0(36):26"/>
				<v:ud v:nameU="msvThemeEffects" v:val="VT0(16):26"/>
			</v:userDefs>
			<v:textBlock v:margins="rect(4,4,4,4)" v:tabSpace="42.5197"/>
			<v:textRect cx="22.6063" cy="40.6057" width="45.22" height="18.4252"/>
			<rect x="0" y="31.3931" width="45.2126" height="18.4252" class="st7"/>
			<text x="15.16" y="38.21" class="st4" v:langID="1031"><v:paragraph v:horizAlign="1"/><v:tabList/>item <tspan x="4.71"
						dy="1.2em" class="st8">departures</tspan></text>		</g>
	</g>
</svg>
