<?xml version="1.0" encoding="utf-8"?>
<svg version="1.1" xmlns="http://www.w3.org/2000/svg" width="296px" height="72px" viewBox="0 0 296 72">
<g>
	<g>
		<path fill="#666666" d="M1.77,69.189c0.49,0.78,1.18,1.37,2.04,1.761c0.86,0.39,1.93,0.579,3.2,0.579c1.01,0,1.92-0.189,2.71-0.56
			c0.8-0.38,1.42-0.89,1.85-1.58c0.44-0.689,0.66-1.41,0.66-2.17c0-0.78-0.19-1.47-0.54-2.07c-0.37-0.59-0.93-1.069-1.68-1.46
			c-0.52-0.25-1.48-0.55-2.87-0.89c-1.39-0.33-2.25-0.66-2.57-0.99c-0.35-0.31-0.51-0.72-0.51-1.22c0-0.561,0.23-1.04,0.7-1.45
			c0.48-0.41,1.23-0.61,2.27-0.61c0.99,0,1.75,0.171,2.26,0.521c0.51,0.34,0.8,0.82,0.9,1.479h2.04
			c-0.03-0.779-0.27-1.479-0.69-2.109c-0.43-0.62-1.03-1.09-1.83-1.41c-0.8-0.31-1.72-0.48-2.74-0.48c-0.96,0-1.82,0.171-2.59,0.5
			c-0.76,0.33-1.35,0.811-1.75,1.45c-0.42,0.641-0.61,1.33-0.61,2.05c0,0.671,0.18,1.28,0.53,1.811c0.35,0.55,0.87,1,1.58,1.36
			c0.54,0.279,1.42,0.579,2.61,0.88c1.18,0.31,1.96,0.529,2.31,0.67c0.55,0.22,0.87,0.5,0.98,0.83c0.09,0.34,0.16,0.729,0.16,1.17
			c0,0.45-0.13,0.84-0.39,1.189c-0.25,0.34-0.62,0.62-1.13,0.811c-0.51,0.189-1.08,0.279-1.75,0.279c-0.75,0-1.42-0.13-2.01-0.38
			c-0.61-0.25-1.04-0.59-1.33-1.01c-0.28-0.42-0.47-0.95-0.54-1.61H1C1.02,67.529,1.27,68.399,1.77,69.189z"/>
		<rect x="15.29" y="56.529" fill="#666666" width="2.04" height="15"/>
		<path fill="#666666" d="M23.46,71.529v-13l3.25,13h2.71l3.22-12.92v12.92h2.05v-15l-3.56,0.66l-2.52,9.29
			c-0.26,1.021-0.45,1.78-0.56,2.3c-0.11-0.47-0.29-1.17-0.51-2.13l-2.57-9.46l-3.55-0.66v15H23.46z"/>
		<path fill="#666666" d="M46.93,64.89c0,1.811-0.28,3.05-0.86,3.69c-0.57,0.64-1.51,0.949-2.84,0.949
			c-0.78,0-1.43-0.159-1.97-0.479c-0.55-0.32-0.91-0.79-1.14-1.38c-0.22-0.59-0.33-1.521-0.33-2.78v-8.36h-2.04v8.521
			c0,1.56,0.17,2.79,0.54,3.7c0.35,0.899,0.96,1.609,1.82,2.08c0.84,0.47,1.94,0.699,3.28,0.699c1.38,0,2.49-0.27,3.34-0.81
			c0.84-0.55,1.43-1.25,1.75-2.13c0.32-0.87,0.5-2.04,0.5-3.54v-8.521h-2.05V64.89z"/>
		<polygon fill="#666666" points="61.22,71.529 61.22,69.529 55.1,69.529 55.1,56.529 53.06,56.529 53.06,71.529"/>
		<path fill="#666666" d="M67.88,61.39l1-2.86c0.29,0.86,0.67,1.891,1.12,3.11l1.35,3.89h-4.93L67.88,61.39z M64.03,71.529l1.68-4
			h6.34l1.66,4h1.95l-5.42-15h-2.72l-5.42,15H64.03z"/>
		<polygon fill="#666666" points="82.66,71.529 82.66,58.529 87.76,58.529 87.76,56.529 75.52,56.529 75.52,58.529 80.62,58.529 
			80.62,71.529"/>
		<rect x="89.81" y="56.529" fill="#666666" width="2.04" height="15"/>
		<path fill="#666666" d="M98.47,59.84c1-0.87,2.2-1.311,3.6-1.311c0.99,0,1.87,0.23,2.66,0.69c0.8,0.45,1.39,1.09,1.81,1.92
			c0.41,0.83,0.62,1.8,0.62,2.91c0,1.75-0.5,3.1-1.45,4.06c-0.96,0.95-2.19,1.421-3.67,1.421c-1.47,0-2.68-0.471-3.64-1.41
			c-0.97-0.931-1.45-2.23-1.45-3.891C96.95,62.189,97.45,60.72,98.47,59.84z M95.76,67.97c0.57,1.06,1.4,1.92,2.52,2.58
			c1.11,0.65,2.37,0.979,3.78,0.979c1.29,0,2.5-0.3,3.62-0.89c1.11-0.59,1.99-1.49,2.6-2.64c0.6-1.16,0.92-2.471,0.92-3.94
			c0-1.45-0.3-2.75-0.88-3.89c-0.57-1.141-1.42-2.03-2.53-2.67c-1.12-0.641-2.35-0.971-3.72-0.971c-2.1,0-3.83,0.69-5.17,2.051
			c-1.34,1.359-1.99,3.229-1.99,5.64C94.91,65.649,95.18,66.899,95.76,67.97z"/>
		<polygon fill="#666666" points="113.28,71.529 113.28,59.81 120.32,71.529 122.47,71.529 122.47,56.529 120.43,56.529 
			120.43,68.25 113.4,56.529 111.24,56.529 111.24,71.529"/>
		<polygon fill="#666666" points="134.72,71.529 134.72,64.529 140.84,64.529 140.84,62.529 134.72,62.529 134.72,58.529 
			141.87,58.529 141.87,56.529 132.68,56.529 132.68,71.529"/>
		<path fill="#666666" d="M147.46,59.84c1.01-0.87,2.2-1.311,3.61-1.311c0.99,0,1.859,0.23,2.66,0.69
			c0.801,0.45,1.391,1.09,1.801,1.92c0.42,0.83,0.629,1.8,0.629,2.91c0,1.75-0.5,3.1-1.459,4.06c-0.951,0.95-2.182,1.421-3.66,1.421
			c-1.471,0-2.68-0.471-3.641-1.41c-0.97-0.931-1.45-2.23-1.45-3.891C145.95,62.189,146.44,60.72,147.46,59.84z M144.75,67.97
			c0.58,1.06,1.41,1.92,2.52,2.58c1.12,0.65,2.38,0.979,3.781,0.979c1.289,0,2.51-0.3,3.619-0.89c1.121-0.59,2-1.49,2.6-2.64
			c0.611-1.16,0.932-2.471,0.932-3.94c0-1.45-0.311-2.75-0.881-3.89c-0.57-1.141-1.42-2.03-2.539-2.67
			c-1.111-0.641-2.34-0.971-3.711-0.971c-2.11,0-3.83,0.69-5.17,2.051c-1.34,1.359-1.99,3.229-1.99,5.64
			C143.91,65.649,144.18,66.899,144.75,67.97z"/>
		<path fill="#666666" d="M163.301,58.529h3.879c0.762,0,1.34,0.19,1.701,0.561c0.35,0.38,0.549,0.85,0.549,1.41
			c0,0.39-0.1,0.75-0.279,1.08c-0.17,0.34-0.43,0.569-0.76,0.729c-0.34,0.16-0.881,0.22-1.609,0.22h-3.48V58.529z M163.301,71.529
			v-7h1.879c0.42,0,0.701,0.03,0.9,0.091c0.25,0.1,0.41,0.27,0.49,0.5c0.08,0.239,0.27,0.6,0.59,1.08
			c0.301,0.5,0.689,1.199,1.17,2.13l1.75,3.199h2.42l-2.119-4.189c-0.43-0.83-0.871-1.51-1.35-2.061
			c-0.24-0.229-0.58-0.479-1.012-0.75c1.172-0.189,2.031-0.64,2.602-1.359c0.559-0.72,0.85-1.59,0.85-2.641
			c0-0.8-0.18-1.529-0.51-2.199c-0.35-0.66-0.801-1.13-1.361-1.391c-0.568-0.27-1.398-0.41-2.488-0.41h-5.852v15H163.301
			L163.301,71.529z"/>
		<polygon fill="#666666" points="191.881,71.529 191.881,69.529 183.721,69.529 183.721,64.529 190.861,64.529 190.861,62.529 
			183.721,62.529 183.721,58.529 191.881,58.529 191.881,56.529 181.67,56.529 181.67,71.529"/>
		<path fill="#666666" d="M196.99,58.529h2.689c0.99,0,1.721,0.11,2.191,0.301c0.619,0.279,1.148,0.81,1.59,1.62
			c0.449,0.81,0.67,1.97,0.67,3.47c0,1.09-0.109,2.02-0.33,2.78c-0.23,0.77-0.551,1.38-0.939,1.81c-0.291,0.33-0.67,0.58-1.15,0.75
			c-0.48,0.19-1.15,0.27-2,0.27h-2.721V58.529L196.99,58.529z M199.84,71.529c0.83,0,1.551-0.079,2.191-0.25
			c0.629-0.17,1.18-0.42,1.619-0.75c0.449-0.329,0.85-0.779,1.23-1.359c0.379-0.58,0.689-1.311,0.93-2.19
			c0.24-0.87,0.359-1.89,0.359-3.029c0-1.341-0.189-2.53-0.539-3.561s-0.891-1.89-1.59-2.56c-0.561-0.521-1.23-0.88-2-1.08
			c-0.561-0.141-1.371-0.22-2.42-0.22h-4.68v15L199.84,71.529L199.84,71.529z"/>
		<path fill="#666666" d="M217.4,64.89c0,1.811-0.289,3.05-0.859,3.69c-0.57,0.64-1.52,0.949-2.84,0.949
			c-0.781,0-1.43-0.159-1.98-0.479c-0.541-0.32-0.91-0.79-1.131-1.38c-0.219-0.59-0.33-1.521-0.33-2.78v-8.36h-2.049v8.521
			c0,1.56,0.18,2.79,0.549,3.7c0.352,0.899,0.951,1.609,1.82,2.08c0.84,0.47,1.941,0.699,3.281,0.699c1.369,0,2.488-0.27,3.33-0.81
			c0.85-0.55,1.439-1.25,1.76-2.13c0.32-0.87,0.49-2.04,0.49-3.54v-8.521H217.4V64.89z"/>
		<path fill="#666666" d="M231.33,68.649c-0.689,0.601-1.52,0.88-2.51,0.88c-0.811,0-1.561-0.199-2.25-0.64
			c-0.699-0.42-1.209-1.06-1.529-1.939c-0.33-0.86-0.49-1.87-0.49-3.03c0-0.891,0.141-1.771,0.43-2.61
			c0.279-0.84,0.779-1.53,1.48-2.03c0.699-0.5,1.559-0.75,2.619-0.75c0.891,0,1.641,0.23,2.25,0.69c0.6,0.45,1.061,1.17,1.381,2.15
			l2.039-0.42c-0.379-1.4-1.059-2.4-2.02-3.011c-0.959-0.6-2.15-1.069-3.561-1.41c-1.24,0-2.389,0.301-3.43,0.87
			c-1.029,0.601-1.83,1.44-2.391,2.57c-0.568,1.12-0.84,2.45-0.84,3.95c0,1.39,0.23,2.689,0.73,3.89
			c0.48,1.22,1.201,2.141,2.141,2.771c0.92,0.64,2.129,0.949,3.629,0.949c1.441-0.159,2.67-0.63,3.67-1.409
			c0.99-0.761,1.691-1.971,2.07-3.61l-2.039-0.45C232.461,67.22,232,68.08,231.33,68.649z"/>
		<path fill="#666666" d="M241.41,61.39l1-2.86c0.291,0.86,0.67,1.891,1.121,3.11l1.35,3.89h-4.93L241.41,61.39z M237.561,71.529
			l1.68-4h6.34l1.66,4h1.951l-5.422-15h-2.719l-5.42,15H237.561z"/>
		<polygon fill="#666666" points="256.191,71.529 256.191,58.529 261.291,58.529 261.291,56.529 249.041,56.529 249.041,58.529 
			254.15,58.529 254.15,71.529"/>
		<rect x="263.34" y="56.529" fill="#666666" width="2.041" height="15"/>
		<path fill="#666666" d="M272,59.84c1-0.87,2.201-1.311,3.6-1.311c0.99,0,1.871,0.23,2.66,0.69c0.801,0.45,1.391,1.09,1.811,1.92
			c0.41,0.83,0.621,1.8,0.621,2.91c0,1.75-0.5,3.1-1.451,4.06c-0.959,0.95-2.189,1.421-3.67,1.421c-1.471,0-2.68-0.471-3.641-1.41
			c-0.969-0.931-1.449-2.23-1.449-3.891C270.48,62.189,270.98,60.72,272,59.84z M269.281,67.97c0.58,1.06,1.41,1.92,2.52,2.58
			c1.119,0.65,2.379,0.979,3.779,0.979c1.301,0,2.51-0.3,3.631-0.89c1.109-0.59,1.99-1.49,2.6-2.64c0.6-1.16,0.92-2.471,0.92-3.94
			c0-1.45-0.301-2.75-0.881-3.89c-0.568-1.141-1.42-2.03-2.529-2.67c-1.119-0.641-2.35-0.971-3.721-0.971
			c-2.1,0-3.828,0.69-5.17,2.051c-1.34,1.359-1.988,3.229-1.988,5.64C268.441,65.649,268.711,66.899,269.281,67.97z"/>
		<polygon fill="#666666" points="286.811,71.529 286.811,59.81 293.85,71.529 296,71.529 296,56.529 293.961,56.529 293.961,68.25 
			286.92,56.529 284.77,56.529 284.77,71.529"/>
	</g>
	<g>
		<path fill="#666666" d="M35.39,25.529c0.88,0,1.63,0.33,2.24,0.95c0.6,0.64,0.92,1.42,0.92,2.33c0,0.88-0.32,1.63-0.92,2.28
			c-0.61,0.66-1.36,0.97-2.24,0.92H0.94v9.52h34.45c3.49,0,6.45-1.229,8.92-3.699c2.46-2.471,3.69-5.461,3.69-8.931
			c0-3.51-1.23-6.51-3.69-9.01c-2.47-2.5-5.43-3.75-8.9-3.75h-3.93h-6.92H13.61c-0.81,0-1.53-0.3-2.19-0.92
			c-0.65-0.61-0.97-1.33-0.97-2.16c0-0.86,0.32-1.59,0.94-2.19c0.63-0.59,1.36-0.899,2.2-0.949h34.66V0.47l-34.66,0.06
			c-3.43,0-6.4,1.221-8.87,3.66C2.23,6.619,1,9.579,1,13.029c0,3.42,1.23,6.36,3.72,8.811c2.47,2.47,5.44,3.689,8.87,3.689h4.22
			h4.92H35.39z"/>
		<rect x="51" y="0.529" fill="#666666" width="9.45" height="41"/>
		<path fill="#666666" d="M92.44,41.529V9.979h6.08c0.84,0,1.54,0.32,2.14,0.92c0.59,0.61,0.89,1.33,0.89,2.18v28.45H111v-28.33
			c0-3.479-1.23-6.449-3.67-8.92c-2.44-2.45-5.39-3.7-8.86-3.75H64v41h9.45V9.979H83v31.55H92.44z"/>
		<path fill="#FF6600" d="M121.3,22.529l21.7-13v13H121.3z M151,41.529v-12h10v-7h-10v-22h-8L115,18.25v11.279h28v12H151z"/>
		<polygon fill="#666666" points="173.451,32.079 173.451,25.529 200.221,25.529 200.221,16.079 173.451,16.079 173.451,9.979 
			201.42,9.979 201.42,0.529 164,0.529 164,41.529 201.801,41.529 201.801,32.079"/>
		<path fill="#666666" d="M214.451,32.079V10.05h21.969c0.08,0,0.17,0.01,0.281,0.029c0.1,0.03,0.189,0.03,0.279,0.03
			c0.631,0.17,1.221,0.54,1.77,1.11c0.531,0.56,0.811,1.2,0.811,1.92v15.84c0,0.85-0.311,1.6-0.92,2.22
			c-0.609,0.63-1.34,0.92-2.221,0.88H214.451z M205,41.529h31.42c3.471,0,6.441-1.22,8.891-3.689c2.461-2.45,3.689-5.4,3.689-8.86
			v-7.95v-5.05v-2.78c0-3.479-1.229-6.449-3.689-8.92c-2.449-2.45-5.42-3.7-8.891-3.75H205V41.529z"/>
		<path fill="#666666" d="M296,0.529h-9.439v28.45c0,0.85-0.311,1.6-0.92,2.22c-0.609,0.63-1.34,0.92-2.221,0.88h-21.969V0.59H252
			v40.939h31.42c3.471,0,6.441-1.22,8.891-3.689c2.461-2.45,3.689-5.42,3.689-8.92V0.529L296,0.529z"/>
	</g>
	<rect y="47.529" fill="#FF6600" width="296" height="3"/>
</g>
</svg>
