<?xml version="1.0" encoding="UTF-8" standalone="no"?>
<!-- Created with Inkscape (http://www.inkscape.org/) -->
<svg
   xmlns:svg="http://www.w3.org/2000/svg"
   xmlns="http://www.w3.org/2000/svg"
   xmlns:xlink="http://www.w3.org/1999/xlink"
   version="1.0"
   width="224.04066"
   height="176.183"
   id="svg2">
  <defs
     id="defs5" />
  <rect
     width="222.04066"
     height="16.14048"
     x="1"
     y="159.04251"
     id="rect2384"
     style="fill:#000000;fill-opacity:1;fill-rule:evenodd;stroke:#000000;stroke-width:2;stroke-opacity:1" />
  <rect
     width="161.4048"
     height="62.380775"
     x="21.502769"
     y="96.661743"
     id="rect2386"
     style="fill:#0a7e00;fill-opacity:1;fill-rule:evenodd;stroke:#000000;stroke-width:4;stroke-miterlimit:4;stroke-dasharray:none;stroke-opacity:1" />
  <path
     d="M 41.457049,2 L 56.423029,2 L 56.423029,49.330868 L 59.890941,96.661736 L 38.515711,96.661736 L 41.457049,49.330868 L 41.457049,2 z"
     id="rect2388"
     style="fill:#0a7e00;fill-opacity:1;fill-rule:evenodd;stroke:#000000;stroke-width:4;stroke-miterlimit:4;stroke-opacity:1" />
  <path
     d="M 86.954019,57.84635 L 86.954019,67.90885 C 82.115467,68.450236 77.747941,70.700712 77.579019,74.22135 L 77.579019,95.78385 L 100.01652,96.59635 L 100.01652,74.84635 C 99.675489,70.020428 94.734149,67.838334 89.579019,67.72135 L 89.579019,57.84635 L 86.954019,57.84635 z"
     id="path2392"
     style="fill:#66ab69;fill-opacity:0.53271024;fill-rule:evenodd;stroke:#000000;stroke-width:4;stroke-linecap:butt;stroke-linejoin:miter;stroke-miterlimit:4;stroke-dasharray:none;stroke-opacity:1" />
  <path
     d="M 20.720887,57.138634 A 1.6903882,1.7449168 0 1 1 17.34011,57.138634 A 1.6903882,1.7449168 0 1 1 20.720887,57.138634 z"
     transform="matrix(2,0,0,2,-4.670981,-6.996335)"
     id="path3179"
     style="fill:#000000;fill-opacity:1;fill-rule:evenodd;stroke:#000000;stroke-opacity:1" />
  <use
     transform="translate(-1.2207032e-8,13.959339)"
     id="use3181"
     x="0"
     y="0"
     width="118"
     height="94"
     xlink:href="#path3179" />
  <use
     transform="translate(-1.2207032e-8,13.959331)"
     id="use3183"
     x="0"
     y="0"
     width="118"
     height="94"
     xlink:href="#use3181" />
  <use
     transform="translate(-1.2207032e-8,13.959334)"
     id="use3185"
     x="0"
     y="0"
     width="118"
     height="94"
     xlink:href="#use3183" />
  <path
     d="M 20.720887,57.138634 A 1.6903882,1.7449168 0 1 1 17.34011,57.138634 A 1.6903882,1.7449168 0 1 1 20.720887,57.138634 z"
     transform="matrix(2,0,0,2,131.43253,-6.996335)"
     id="path3187"
     style="fill:#0a7e00;fill-opacity:0.40809966;fill-rule:evenodd;stroke:#000000;stroke-opacity:1" />
  <use
     transform="translate(136.10351,13.959339)"
     id="use3189"
     x="0"
     y="0"
     width="118"
     height="94"
     xlink:href="#path3179" />
  <use
     transform="translate(136.10351,13.959331)"
     id="use3191"
     x="0"
     y="0"
     width="118"
     height="94"
     xlink:href="#use3181" />
  <use
     transform="translate(136.10351,13.959334)"
     id="use3193"
     x="0"
     y="0"
     width="118"
     height="94"
     xlink:href="#use3183" />
  <path
     d="M 161.32901,52.15885 C 134.11879,52.15885 112.01652,74.261118 112.01652,101.47135 C 112.01652,128.68158 134.11879,150.78385 161.32901,150.78385 C 188.53925,150.78385 210.64151,128.68158 210.64151,101.47135 C 210.64151,74.261118 188.53925,52.15885 161.32901,52.15885 z M 159.07901,58.09635 C 159.81847,58.058826 160.58028,58.09635 161.32901,58.09635 C 165.37025,58.09635 169.24268,58.687986 172.95401,59.72135 L 160.57901,93.84635 L 136.95402,65.59635 C 143.32781,61.240626 150.88076,58.512366 159.07901,58.09635 z M 177.51651,61.22135 C 189.35286,65.982592 198.59977,75.821692 202.57901,88.03385 L 165.32901,94.59635 L 177.51651,61.22135 z M 133.14152,68.47135 L 156.39151,96.22135 L 118.01652,102.97135 C 117.99979,102.47608 117.95402,101.9707 117.95402,101.47135 C 117.95402,88.272014 123.84805,76.441686 133.14152,68.47135 z M 203.82901,92.65885 C 204.41479,95.5015 204.70401,98.45499 204.70401,101.47135 C 204.70401,113.2459 200.00453,123.90666 192.39151,131.72135 L 165.32901,99.47135 L 203.82901,92.65885 z M 158.01651,100.78385 L 143.39152,140.97135 C 130.21484,134.97848 120.54583,122.60749 118.39152,107.78385 L 158.01651,100.78385 z M 162.20401,103.15885 L 188.89151,134.97135 C 181.39407,141.15851 171.81127,144.84635 161.32901,144.84635 C 156.612,144.84635 152.08031,144.11295 147.82902,142.72135 L 162.20401,103.15885 z"
     id="path2390"
     style="fill:#000000;fill-opacity:1;fill-rule:evenodd;stroke:#000000;stroke-width:2;stroke-opacity:1" />
</svg>
